<svg width="195" height="64" viewBox="0 0 195 64" fill="none" xmlns="http://www.w3.org/2000/svg">
<g clip-path="url(#clip0_1922_19768)">
<path d="M50.1615 36.7246C57.3342 36.851 64.53 36.6922 71.7057 36.7004C74.8618 36.704 78.1361 36.5381 81.2764 36.8284C81.3036 36.8875 81.3285 36.9466 81.3476 37.009C81.494 37.4869 81.3392 41.9242 81.1066 42.3707C79.6747 42.4751 78.1605 42.3676 76.721 42.3629L69.0186 42.3726C69.0825 42.4724 69.1365 42.5781 69.1637 42.6945C69.3039 43.2942 69.2873 46.1634 68.996 46.6264C69.0469 46.7002 69.0883 46.7789 69.1112 46.8661C69.2808 47.5147 69.2165 57.3577 69.1226 58.6069C69.111 58.76 69.0653 58.8809 68.9874 59.0124C67.1044 59.2557 63.8026 59.0715 61.7734 59.0652C61.8494 53.51 61.7176 47.9315 61.7025 42.3737C57.8685 42.2456 54.0041 42.3314 50.1664 42.3199C50.1429 40.4597 50.0713 38.5825 50.1615 36.7246Z" fill="#93979F" fill-opacity="0.5"/>
<path d="M90.7803 36.6862C91.8947 36.6086 95.7163 36.6305 96.6782 36.8912C96.7918 36.9366 96.8932 36.9961 96.9837 37.0796C98.1274 38.1345 100.254 41.9381 101.219 43.4495C103.417 46.8922 105.646 50.3144 107.907 53.7161C108.427 54.4977 111.194 58.3557 111.235 59.0214C110.24 59.1205 109.204 59.0711 108.204 59.075C106.622 59.0935 105.041 59.0887 103.46 59.0605C103.417 58.8505 102.472 57.7951 102.253 57.4834C101.518 56.4359 99.5834 53.0592 98.9527 52.501L98.9015 52.4975C97.7394 52.4225 88.5779 52.3807 88.1232 52.5862C87.9587 52.6605 87.7189 52.9364 87.5744 53.0632C87.5728 53.1169 87.5689 53.1776 87.5509 53.2284C87.351 53.7874 84.1221 58.7781 83.5961 59.0731C81.1434 59.0433 78.6908 59.045 76.2383 59.0782C76.2485 59.0704 76.259 59.0626 76.269 59.0544C76.4201 58.9316 81.4281 51.0777 81.9101 50.3499C82.2829 49.787 83.6654 48.0444 83.7194 47.4612C85.7752 47.587 87.8547 47.522 89.9145 47.5172C91.9003 47.5127 93.9048 47.5676 95.8878 47.4759C95.9079 47.397 95.9097 47.3346 95.8939 47.254C95.7489 46.5099 94.4515 44.3577 93.8303 43.9515C92.6989 43.7527 91.4659 43.8262 90.3195 43.8167C88.8885 43.8007 87.4579 43.772 86.0275 43.7306C86.2313 43.587 90.475 37.2844 90.7803 36.6862Z" fill="#93979F" fill-opacity="0.5"/>
<path d="M20.4413 4.9093C22.3682 4.7767 24.3705 4.89815 26.3019 4.92817C27.4822 5.86966 29.7389 9.97746 30.7206 11.4855C34.1355 16.7311 37.8786 22.1064 40.9475 27.5413C38.2815 27.4196 35.6148 27.4011 32.9474 27.4858C31.5024 25.2254 30.0784 22.9519 28.6754 20.665C26.4044 20.6878 24.1334 20.6877 21.8624 20.6648C20.6717 20.6595 19.4492 20.5979 18.2616 20.6811C17.885 20.7076 17.7308 20.7499 17.4839 21.0334C16.1478 23.1004 14.8489 25.2416 13.6653 27.4006C11.1057 27.568 8.53429 27.3026 5.97266 27.5415C7.62849 24.7759 9.35097 22.0678 11.0674 19.3401C11.8107 18.1588 12.5639 16.6155 13.5138 15.608C14.9005 15.5985 24.8857 15.7411 25.3755 15.4006C25.4883 14.9776 25.1257 14.4336 24.9221 14.0819C24.6667 13.6406 24.1111 12.6089 23.6177 12.4832C23.6023 12.4793 23.5868 12.4758 23.5714 12.4717C22.5244 12.1967 21.2354 12.3082 20.1547 12.2793C18.7224 12.2445 17.2915 12.1803 15.8619 12.0869C17.3631 9.67822 18.8896 7.28568 20.4413 4.9093Z" fill="#93979F" fill-opacity="0.5"/>
<path d="M168.602 4.97035C169.498 4.74659 173.305 4.91411 174.537 4.89739C174.545 4.90228 174.554 4.90694 174.563 4.91205C175.009 5.173 175.426 5.91594 175.715 6.34084C177.582 9.07208 179.277 11.9321 181.078 14.707C183.568 18.5434 186.209 22.291 188.523 26.2392C188.757 26.6399 189.152 27.0883 189.261 27.5339C187.157 27.23 183.468 27.4513 181.21 27.4672C180.815 26.7037 177.209 20.9892 176.826 20.683C176.816 20.682 176.807 20.68 176.797 20.68C175.755 20.674 166.172 20.6595 165.981 20.779C165.837 20.8688 165.688 21.0437 165.558 21.1597C165.559 21.1949 165.559 21.2339 165.552 21.2684C165.409 21.9404 162.104 27.1242 161.604 27.4108C159.131 27.608 156.558 27.4298 154.055 27.5729C154.102 27.5394 154.143 27.5052 154.186 27.4648C154.924 26.7522 155.459 25.4517 156.02 24.571C156.762 23.4044 161.626 16.2775 161.639 15.5699C163.548 15.4522 172.991 15.8233 173.795 15.3658C173.796 15.3547 173.799 15.3435 173.799 15.3324C173.837 14.8279 172.875 13.3868 172.523 13.0094C172.203 12.666 171.795 12.4802 171.342 12.3808C170.496 12.1944 169.513 12.2818 168.643 12.2611C167.062 12.2299 165.482 12.1754 163.902 12.0974C164.094 11.9817 164.225 11.8492 164.357 11.6696C164.914 10.9126 168.418 5.56836 168.602 4.97035Z" fill="#93979F" fill-opacity="0.5"/>
<path d="M118.943 36.7809C119.734 36.6381 120.666 36.7195 121.476 36.7184L126.426 36.7172L144.48 36.7335C144.526 36.8099 144.566 36.8869 144.594 36.9722C144.797 37.6054 144.58 41.9139 144.577 42.998C144.569 48.0366 144.717 53.0956 144.57 58.1311C144.56 58.4616 144.564 58.7605 144.412 59.064C142.145 59.1527 139.854 59.0745 137.585 59.1121C137.642 59.0266 137.691 58.9352 137.712 58.8329C137.919 57.8276 137.722 54.9015 137.713 53.6991C137.692 50.4605 137.826 47.1669 137.657 43.9369C137.646 43.7304 137.609 43.5847 137.498 43.4085C137.554 43.3049 137.599 43.1894 137.631 43.0761C137.706 42.8182 137.665 42.577 137.536 42.3472C135.995 42.4745 134.386 42.368 132.837 42.3524C130.288 42.3294 127.738 42.3199 125.188 42.3239C125.329 42.6652 125.294 43.002 125.277 43.3627C125.063 47.8227 124.861 54.0675 121.303 57.2849C118.918 59.4406 115.952 59.1566 112.953 59.0039C112.962 58.9891 112.97 58.9746 112.978 58.9597C113.131 58.6787 113.193 53.7924 113.075 53.4212C113.84 53.4469 114.879 53.5706 115.61 53.3474C116.116 53.1929 116.508 52.5156 116.74 52.0746C117.357 50.9021 117.777 49.4983 118.059 48.2066C118.437 46.4741 119.388 38.204 118.943 36.7809Z" fill="#93979F" fill-opacity="0.5"/>
<path d="M61.2396 4.87574C65.3991 4.84958 69.5584 4.86742 73.7176 4.92925C73.7818 5.03235 73.8351 5.14273 73.8573 5.26324C73.9687 5.86695 73.8869 6.63981 73.8862 7.25756L73.8802 11.7396C73.8802 16.6069 74.052 21.7691 73.8372 26.6064C73.8233 26.9196 73.8175 27.1834 73.6369 27.4523C71.4026 27.6249 69.0087 27.4413 66.7366 27.5288C66.7928 27.4455 66.839 27.3564 66.8608 27.2573C67.0683 26.3135 66.9037 23.2729 66.9021 22.1251C66.8967 18.4785 67.0436 14.7518 66.8537 11.1129C66.8431 10.9106 66.8079 10.7699 66.705 10.5941C64.4681 10.5997 62.2312 10.593 59.9943 10.5738C58.2845 10.573 56.5697 10.6223 54.8623 10.5202C54.8498 10.5197 54.8372 10.5175 54.8248 10.5185C54.3756 10.5553 54.4258 11.9265 54.4032 12.2863C54.1573 16.1919 53.8855 21.8939 51.0636 24.8778C48.7244 27.3513 45.4722 27.3711 42.2949 27.467C42.2208 25.6234 42.1874 23.7581 42.4552 21.9279C42.6038 21.9375 42.7526 21.9437 42.9016 21.9464C43.8067 21.9608 44.5184 21.7159 45.1742 21.0754C48.0341 18.2829 48.2042 8.85939 48.244 4.90839L61.2396 4.87574Z" fill="#93979F" fill-opacity="0.5"/>
<path d="M15.3068 36.6887C24.8472 36.9183 34.4055 36.5642 43.9489 36.7723C43.8848 39.1962 43.9335 41.6332 43.921 44.0588C41.4255 44.2238 38.8761 44.1231 36.3758 44.0936C36.35 43.517 36.2688 42.9351 36.2108 42.3606C31.7619 42.2597 27.3001 42.3161 22.8498 42.3263C22.7873 44.6748 22.764 47.0236 22.78 49.3727C22.7816 50.7182 22.7242 52.0951 22.8483 53.4355C25.0511 53.2186 27.3024 53.3126 29.5147 53.3203C31.7559 53.3147 33.9864 53.2941 36.2255 53.4118C36.2624 52.4737 36.3204 51.5368 36.3997 50.6013C37.3957 50.5091 38.4377 50.5611 39.4387 50.5613C40.955 50.5617 42.4799 50.5346 43.9933 50.6392C43.9894 53.426 44.029 56.22 43.9412 59.0053C42.7973 59.1362 41.6015 59.0697 40.45 59.0655L34.8025 59.0523L15.3167 59.0653C15.2662 55.0393 15.2515 51.013 15.2724 46.9866C15.2721 43.5563 15.2229 40.1178 15.3068 36.6887Z" fill="#93979F" fill-opacity="0.5"/>
<path d="M149.74 36.781C150.527 36.615 151.532 36.7217 152.345 36.7251L157.233 36.7457C157.266 36.7997 157.299 36.8569 157.321 36.9171C157.502 37.419 157.476 44.9244 157.293 45.3365C159.761 45.2672 162.231 45.3221 164.701 45.3041C167.34 45.2849 172.567 44.9867 174.882 45.6065C176.168 45.9505 177.185 46.8337 177.841 47.9822C178.893 49.8262 179.04 52.7161 178.475 54.7459C178.227 55.6371 177.679 56.8519 176.838 57.3255C176.821 57.4242 176.755 57.4912 176.687 57.5606C176.014 58.2525 174.751 58.7787 173.813 58.933C171.502 59.3137 168.76 59.0467 166.398 59.0546C160.822 59.024 155.247 59.0327 149.672 59.081C149.682 59.065 149.693 59.0494 149.702 59.0331C150.007 58.5195 149.797 53.4929 149.795 52.5085L149.808 41.3292C149.809 40.3241 149.966 37.6162 149.74 36.781Z" fill="#93979F" fill-opacity="0.5"/>
<path d="M157.362 50.2249C158.906 50.0748 160.557 50.1843 162.115 50.1809C165.033 50.1745 167.966 50.1148 170.88 50.2855C171.181 50.871 171.075 52.0728 171.03 52.7382C171.008 53.0732 170.995 53.1923 170.744 53.4115C166.41 53.3925 161.526 53.1919 157.254 53.4975C157.609 52.8819 157.399 50.9743 157.362 50.2249Z" fill="#28241E"/>
<path d="M78.8883 4.9698C79.9071 4.71781 85.0166 4.9209 86.4037 4.92885C86.8162 5.57504 86.6511 12.159 86.5301 13.2978C87.7009 13.3859 88.9522 13.2726 90.1314 13.2705L98.3536 13.2704C100.055 13.273 101.906 13.1649 103.563 13.5951C104.987 13.965 106.304 14.77 107.057 16.0675C108.131 17.9178 108.179 21.2783 107.629 23.3313C107.412 24.139 106.925 25.1746 106.176 25.6095C106.152 25.7339 106.102 25.7835 106.015 25.8719C105.343 26.5519 104.312 27.0525 103.379 27.2319C100.984 27.6924 97.2444 27.4606 94.7171 27.4615L78.8828 27.4689C78.8979 27.4434 78.9131 27.418 78.9261 27.3915C79.1827 26.8705 78.991 23.9183 78.9857 23.0868C78.9732 21.1779 79.1945 5.79519 78.8883 4.9698Z" fill="#93979F" fill-opacity="0.5"/>
<path d="M86.5791 18.3194C87.766 18.2345 89.0305 18.3079 90.2252 18.3009C93.5148 18.2953 96.8042 18.3181 100.093 18.3694C100.159 18.4713 100.218 18.581 100.238 18.7019C100.352 19.3901 100.449 21.2805 100.067 21.7924C99.7942 21.9586 87.8296 21.8456 86.4609 21.9311C86.7794 21.4129 86.6975 18.9444 86.5791 18.3194Z" fill="#28241E"/>
<path d="M129.378 1.94072C130.408 1.68653 134.924 1.85573 136.196 1.93273C136.243 2.01987 136.283 2.10772 136.309 2.20392C136.449 2.72612 136.464 4.45161 136.196 4.89749C141.615 5.00578 147.792 4.29044 152.013 8.43333C153.968 10.3529 155.091 13.4768 155.116 16.2193C155.138 18.8151 153.93 22.0783 152.098 23.9229C148.403 27.6429 141.146 27.4515 136.272 27.4665C136.287 27.493 136.303 27.5196 136.317 27.5471C136.57 28.0561 136.508 29.824 136.332 30.3694L136.072 30.4913C134.455 30.7898 131.054 30.5771 129.287 30.5513C129.324 30.4588 129.354 30.3639 129.377 30.2666C129.52 29.6374 129.51 27.9796 129.17 27.4444C128.681 27.4883 128.19 27.4974 127.698 27.4988C124.803 27.5076 122.665 27.0669 119.849 26.5894C118.71 26.3963 117.6 26.3336 116.511 25.9058C115.408 25.4729 114.386 24.7481 113.549 23.9084C111.541 21.8919 110.733 18.6108 110.742 15.8239C110.752 13.0749 111.571 10.4115 113.563 8.44324C117.61 4.44409 124.038 4.87771 129.27 4.92402C129.299 4.87889 129.327 4.83306 129.349 4.78403C129.554 4.34339 129.549 2.39793 129.378 1.94072Z" fill="#93979F" fill-opacity="0.5"/>
<path d="M136.503 10.5561C137.988 10.2567 143.28 10.7747 144.703 11.3051C145.9 11.7508 146.827 12.4852 147.355 13.6695C147.956 15.0109 147.978 17.1671 147.449 18.5435C147.151 19.3175 146.564 20.0625 145.793 20.4024C145.769 20.4411 145.752 20.4701 145.718 20.5005C144.016 22.0045 138.449 21.9325 136.273 21.8575C136.746 21.1161 135.96 11.8193 136.503 10.5561Z" fill="#28241E"/>
<path d="M126.622 10.5562C127.492 10.5251 128.37 10.5363 129.242 10.5281C129.294 10.6173 129.343 10.7209 129.371 10.8211C129.577 11.5472 129.507 20.1352 129.436 21.3407C129.425 21.5214 129.376 21.677 129.289 21.836C127.387 22.1849 123.185 21.563 121.235 21.1597C120.533 20.8481 119.898 20.5225 119.318 20.0066C118.276 19.0809 118.031 17.8677 117.951 16.5316C117.866 15.1206 117.953 13.7682 118.937 12.6675C120.674 10.7232 124.21 10.6957 126.622 10.5562Z" fill="#28241E"/>
</g>
<defs>
<clipPath id="clip0_1922_19768">
<rect width="193.512" height="64" fill="white" transform="translate(0.742188)"/>
</clipPath>
</defs>
</svg>
