<svg width="103" height="34" viewBox="0 0 103 34" fill="none" xmlns="http://www.w3.org/2000/svg">
<path d="M1.64062 6.62891H5.38672L11.8672 22.4609H12.0996L18.5938 6.62891H22.3945V27H19.3867V12.2617H19.1953L13.166 26.9727H10.7324L4.77148 12.248H4.58008V27H1.64062V6.62891ZM28.752 6.62891V27H25.6758V6.62891H28.752ZM38.6504 27H33.6191V24.3066H38.4727C40.0221 24.3066 41.3118 24.0195 42.3418 23.4453C43.3717 22.862 44.1419 22.0098 44.6523 20.8887C45.1628 19.7585 45.418 18.3913 45.418 16.7871C45.418 15.1921 45.1628 13.8385 44.6523 12.7266C44.151 11.6146 43.3991 10.7715 42.3965 10.1973C41.3939 9.61393 40.1497 9.32227 38.6641 9.32227H33.5098V6.62891H38.8555C40.8516 6.62891 42.5651 7.03451 43.9961 7.8457C45.4271 8.6569 46.5254 9.82357 47.291 11.3457C48.0566 12.8587 48.4395 14.6725 48.4395 16.7871C48.4395 18.9108 48.0521 20.7337 47.2773 22.2559C46.5117 23.778 45.3997 24.9492 43.9414 25.7695C42.4831 26.5898 40.7194 27 38.6504 27ZM35.123 6.62891V27H32.0469V6.62891H35.123ZM51.8301 27H48.5625L55.8906 6.62891H59.4453L66.7598 27H63.5059L57.7363 10.334H57.5723L51.8301 27ZM52.377 19.0293H62.9453V21.5996H52.377V19.0293Z" fill="white"/>
<rect x="83" y="17" width="4" height="16" fill="white"/>
<rect x="87" y="17" width="4" height="16" transform="rotate(90 87 17)" fill="white"/>
<rect x="91" y="17" width="4" height="16" transform="rotate(180 91 17)" fill="#93979F"/>
<rect x="87" y="17" width="4" height="16" transform="rotate(-90 87 17)" fill="#93979F"/>
</svg>
