<svg width="78" height="78" viewBox="0 0 78 78" fill="none" xmlns="http://www.w3.org/2000/svg">
<g clip-path="url(#clip0_1922_19981)">
<path d="M36 72C55.8822 72 72 55.8822 72 36C72 16.1177 55.8822 0 36 0C16.1177 0 0 16.1177 0 36C0 55.8822 16.1177 72 36 72Z" fill="url(#paint0_linear_1922_19981)"/>
<path fill-rule="evenodd" clip-rule="evenodd" d="M16.297 35.6199C26.7918 31.0475 33.7899 28.0331 37.2914 26.5767C47.289 22.4183 49.3664 21.696 50.7204 21.6721C51.0182 21.6669 51.6841 21.7407 52.1154 22.0907C52.4796 22.3862 52.5798 22.7854 52.6278 23.0656C52.6758 23.3458 52.7355 23.9841 52.688 24.4828C52.1462 30.1753 49.802 43.9893 48.6094 50.365C48.1047 53.0627 47.1111 53.9673 46.1491 54.0558C44.0585 54.2482 42.471 52.6742 40.4462 51.3469C37.2777 49.2699 35.4877 47.977 32.4122 45.9503C28.8579 43.608 31.162 42.3207 33.1876 40.2168C33.7177 39.6662 42.9289 31.2879 43.1071 30.5279C43.1294 30.4328 43.1501 30.0785 42.9396 29.8914C42.7291 29.7043 42.4185 29.7683 42.1943 29.8192C41.8765 29.8913 36.8148 33.2369 27.0093 39.8559C25.5725 40.8425 24.2712 41.3232 23.1052 41.298C21.8198 41.2702 19.3473 40.5712 17.5092 39.9737C15.2547 39.2409 13.4628 38.8534 13.6188 37.6088C13.7001 36.9605 14.5928 36.2976 16.297 35.6199Z" fill="white"/>
</g>
<circle cx="63" cy="63" r="12" fill="#2BACEF" stroke="white" stroke-width="6"/>
<defs>
<linearGradient id="paint0_linear_1922_19981" x1="3600" y1="0" x2="3600" y2="7146.6" gradientUnits="userSpaceOnUse">
<stop stop-color="#2AABEE"/>
<stop offset="1" stop-color="#229ED9"/>
</linearGradient>
<clipPath id="clip0_1922_19981">
<rect width="72" height="72" fill="white"/>
</clipPath>
</defs>
</svg>
