<svg width="113" height="44" viewBox="0 0 113 44" fill="none" xmlns="http://www.w3.org/2000/svg">
<path d="M1.875 10.2188H6.15625L13.5625 28.3125H13.8281L21.25 10.2188H25.5938V33.5H22.1562V16.6562H21.9375L15.0469 33.4688H12.2656L5.45312 16.6406H5.23438V33.5H1.875V10.2188ZM32.8594 10.2188V33.5H29.3438V10.2188H32.8594ZM44.1719 33.5H38.4219V30.4219H43.9688C45.7396 30.4219 47.2135 30.0938 48.3906 29.4375C49.5677 28.7708 50.4479 27.7969 51.0312 26.5156C51.6146 25.224 51.9062 23.6615 51.9062 21.8281C51.9062 20.0052 51.6146 18.4583 51.0312 17.1875C50.4583 15.9167 49.599 14.9531 48.4531 14.2969C47.3073 13.6302 45.8854 13.2969 44.1875 13.2969H38.2969V10.2188H44.4062C46.6875 10.2188 48.6458 10.6823 50.2812 11.6094C51.9167 12.5365 53.1719 13.8698 54.0469 15.6094C54.9219 17.3385 55.3594 19.4115 55.3594 21.8281C55.3594 24.2552 54.9167 26.3385 54.0312 28.0781C53.1562 29.8177 51.8854 31.1562 50.2188 32.0938C48.5521 33.0312 46.5365 33.5 44.1719 33.5ZM40.1406 10.2188V33.5H36.625V10.2188H40.1406ZM59.2344 33.5H55.5L63.875 10.2188H67.9375L76.2969 33.5H72.5781L65.9844 14.4531H65.7969L59.2344 33.5ZM59.8594 24.3906H71.9375V27.3281H59.8594V24.3906Z" fill="#121315"/>
<rect x="93" y="22" width="4" height="16" fill="#121315"/>
<rect x="97" y="22" width="4.224" height="16" transform="rotate(90 97 22)" fill="#121315"/>
<rect x="101" y="22" width="4" height="16" transform="rotate(180 101 22)" fill="#E14453"/>
<rect x="97" y="22" width="4" height="16" transform="rotate(-90 97 22)" fill="#E14453"/>
</svg>
